<mxfile host="app.diagrams.net" modified="2023-10-04T14:05:34.178Z" agent="Mozilla/5.0 (Windows NT 10.0; Win64; x64) AppleWebKit/537.36 (KHTML, like Gecko) Chrome/117.0.0.0 Safari/537.36" etag="XZHYG-axBunN5wEyvfMG" version="22.0.2" type="github">
  <diagram name="PÃ¡gina-1" id="QJd_to68Mrk2Ag7c-s2o">
    <mxGraphModel dx="1434" dy="750" grid="0" gridSize="10" guides="1" tooltips="1" connect="1" arrows="1" fold="1" page="1" pageScale="1" pageWidth="827" pageHeight="1169" math="0" shadow="0">
      <root>
        <mxCell id="0" />
        <mxCell id="1" parent="0" />
        <object label="&lt;font style=&quot;font-size: 16px;&quot;&gt;gerenciaBanco&lt;/font&gt;" id="-WMo9jtsm9AbzMqQrjDE-4">
          <mxCell style="swimlane;fontStyle=1;align=center;verticalAlign=top;childLayout=stackLayout;horizontal=1;startSize=26;horizontalStack=0;resizeParent=1;resizeParentMax=0;resizeLast=0;collapsible=1;marginBottom=0;whiteSpace=wrap;html=1;" parent="1" vertex="1">
            <mxGeometry x="110" y="100" width="330" height="160" as="geometry">
              <mxRectangle x="110" y="100" width="100" height="30" as="alternateBounds" />
            </mxGeometry>
          </mxCell>
        </object>
        <mxCell id="-WMo9jtsm9AbzMqQrjDE-5" value="- nome : String&lt;br&gt;- sobrenome : String&lt;br&gt;- cpf : int&lt;br&gt;- saldo : double" style="text;strokeColor=none;fillColor=none;align=left;verticalAlign=top;spacingLeft=4;spacingRight=4;overflow=hidden;rotatable=0;points=[[0,0.5],[1,0.5]];portConstraint=eastwest;whiteSpace=wrap;html=1;" parent="-WMo9jtsm9AbzMqQrjDE-4" vertex="1">
          <mxGeometry y="26" width="330" height="64" as="geometry" />
        </mxCell>
        <mxCell id="-WMo9jtsm9AbzMqQrjDE-6" value="" style="line;strokeWidth=1;fillColor=none;align=left;verticalAlign=middle;spacingTop=-1;spacingLeft=3;spacingRight=3;rotatable=0;labelPosition=right;points=[];portConstraint=eastwest;strokeColor=inherit;" parent="-WMo9jtsm9AbzMqQrjDE-4" vertex="1">
          <mxGeometry y="90" width="330" height="8" as="geometry" />
        </mxCell>
        <mxCell id="-WMo9jtsm9AbzMqQrjDE-7" value="+ saquePila (String nome) : int&lt;br&gt;+ depositaPila (String nome) : int&lt;br&gt;+ consultaPila (String nome) : int" style="text;strokeColor=none;fillColor=none;align=left;verticalAlign=top;spacingLeft=4;spacingRight=4;overflow=hidden;rotatable=0;points=[[0,0.5],[1,0.5]];portConstraint=eastwest;whiteSpace=wrap;html=1;" parent="-WMo9jtsm9AbzMqQrjDE-4" vertex="1">
          <mxGeometry y="98" width="330" height="62" as="geometry" />
        </mxCell>
      </root>
    </mxGraphModel>
  </diagram>
</mxfile>
